<?xml version="1.0" encoding="UTF-8"?>
<svg id="Layer_2" data-name="Layer 2" xmlns="http://www.w3.org/2000/svg" viewBox="0 0 79.72 24.06">
  <defs>
    <style>
      .cls-1 {
        fill: none;
      }

      .cls-1, .cls-2, .cls-3, .cls-4 {
        stroke-width: 0px;
      }

      .cls-2 {
        fill: #fffaff;
      }

      .cls-3 {
        fill: #0073e7;
      }

      .cls-4 {
        fill: #fff;
      }
    </style>
  </defs>
  <g id="Layer_2-2" data-name="Layer 2">
    <rect class="cls-3" width="79.72" height="24.06" rx="7.17" ry="7.17"/>
    <path class="cls-4" d="M71.63,12.9l-5.72,3.3c-.67.39-1.51-.1-1.51-.87v-6.6c0-.78.84-1.26,1.51-.87l5.72,3.3c.67.39.67,1.36,0,1.75h0Z"/>
    <g>
      <path class="cls-2" d="M7.05,7.7h1.93l1.88,6.56,1.89-6.56h1.88l-2.95,8.64h-1.71l-2.92-8.64Z"/>
      <path class="cls-2" d="M17.07,7.65v1.54h-1.69v-1.54h1.69ZM17.07,9.95v6.39h-1.69v-6.39h1.69Z"/>
      <path class="cls-2" d="M24.15,14.46c-.04.38-.24.76-.59,1.15-.55.62-1.31.93-2.3.93-.81,0-1.53-.26-2.15-.79s-.93-1.38-.93-2.55c0-1.11.28-1.95.84-2.54s1.29-.88,2.18-.88c.53,0,1.01.1,1.44.3s.78.51,1.05.94c.25.38.41.82.49,1.32.04.29.06.71.05,1.27h-4.37c.02.64.22,1.09.6,1.35.23.16.51.24.83.24.34,0,.62-.1.84-.29.12-.11.22-.25.31-.44h1.71ZM22.5,12.51c-.03-.44-.16-.78-.4-1s-.54-.34-.89-.34c-.39,0-.69.12-.9.36s-.35.57-.4.98h2.6Z"/>
      <path class="cls-2" d="M30.2,16.34l-1-4.65-1.01,4.65h-1.73l-1.79-6.39h1.79l1,4.58.92-4.58h1.69l.97,4.6,1-4.6h1.74l-1.85,6.39h-1.72Z"/>
      <path class="cls-2" d="M38.16,7.7h1.8v7.08h4.28v1.55h-6.08V7.7Z"/>
      <path class="cls-2" d="M47.07,7.65v1.54h-1.69v-1.54h1.69ZM47.07,9.95v6.39h-1.69v-6.39h1.69Z"/>
      <path class="cls-2" d="M48.06,9.95h1.88l1.33,4.71,1.36-4.71h1.79l-2.3,6.39h-1.76l-2.29-6.39Z"/>
      <path class="cls-2" d="M60.83,14.46c-.04.38-.24.76-.59,1.15-.55.62-1.31.93-2.3.93-.81,0-1.53-.26-2.15-.79s-.93-1.38-.93-2.55c0-1.11.28-1.95.84-2.54s1.29-.88,2.18-.88c.53,0,1.01.1,1.44.3s.78.51,1.05.94c.25.38.41.82.49,1.32.04.29.06.71.05,1.27h-4.37c.02.64.22,1.09.6,1.35.23.16.51.24.83.24.34,0,.62-.1.84-.29.12-.11.22-.25.31-.44h1.71ZM59.18,12.51c-.03-.44-.16-.78-.4-1s-.54-.34-.89-.34c-.39,0-.69.12-.9.36s-.35.57-.4.98h2.6Z"/>
      <path class="cls-1" d="M70.12,14.56h-3.18l-.6,1.78h-1.89l3.08-8.64h2.04l3.06,8.64h-1.96l-.56-1.78ZM69.62,13.07l-1.08-3.4-1.11,3.4h2.19Z"/>
    </g>
  </g>
</svg>